PathFileType	4	(X/Y/Z)	C:/Users/beibeiliu/ov580/test_trc/User3\out1_training_dense_right.trc
DataRate	CameraRate	NumFrames	NumMarkers	Units	OrigDataRate	OrigDataStartFrame	OrigNumFrames
120	120	14	19	mm	120	188	500
Frame#	Time	ThumbCMC			ThumbMCP			ThumbIP			ThumbTip			IndexMCP			IndexPIP			IndexTip			MiddleMCP			MiddlePIP			MiddleTip			RingMCP			RingPIP			RingTip			PinkyMCP			PinkyPIP			PinkyTip			BackHand1			BackHand2			BackHand3	
		X0	Y0	Z0	X1	Y1	Z1	X2	Y2	Z2	X3	Y3	Z3	X4	Y4	Z4	X5	Y5	Z5	X6	Y6	Z6	X7	Y7	Z7	X8	Y8	Z8	X9	Y9	Z9	X10	Y10	Z10	X11	Y11	Z11	X12	Y12	Z12	X13	Y13	Z13	X14	Y14	Z14	X15	Y15	Z15	X16	Y16	Z16	X17	Y17	Z17	X18	Y18	Z18	
187	1.55833	77.6163	52.132	73.9398	62.6116	42.8516	47.2491	43.9478	36.1819	26.8237	30.2527	30.2148	10.0533	80.4202	57.3387	-4.98274	65.5771	41.9678	-29.1191	64.3548	28.3819	-47.9514	106.606	67.5355	-11.6465	100.649	65.7967	-41.4618	99.8504	63.9418	-71.3802	128.656	59.5912	-8.54113	128.576	54.7018	-29.2871	130.933	45.357	-58.623	155.05	44.4673	6.50784	161.702	34.1845	-11.7116	168.339	25.0251	-31.4499	133.753	73.9018	45.3577	135.826	75.9035	72.2323	99.8896	77	58.0877	
188	1.56667	79.2821	52.0309	72.9867	58.9744	39.2137	51.2081	45.1665	30.4131	24.6203	32.2858	20.8962	10.5146	78.3507	54.699	-7.23072	69.6543	40.6464	-30.5583	65.3906	28.4602	-49.8321	106.101	63.8311	-15.3986	107.198	59.7097	-38.4298	101.395	57.4357	-73.1539	127.239	50.792	-8.01205	130.72	41.6557	-30.4051	131.597	25.7957	-55.6046	149.442	37.605	7.59056	155.133	22.8393	-11.3575	160.389	7.76603	-29.3553	134.044	69.7312	44.7219	135.851	75.6585	68.9511	105.403	77.0546	59.754	
189	1.575	75.2724	53.6884	69.4506	58.8959	38.8856	47.8271	43.054	25.8739	24.234	36.3491	14.3347	8.64464	81.0733	54.6332	-4.88531	68.8321	43.8932	-31.5856	62.9164	33.4993	-50.6585	107.185	58.4035	-16.3392	102.273	51.9477	-44.0714	99.2484	45.1075	-70.6784	127.528	41.814	-10.8944	126.53	28.1735	-29.9608	129.611	6.72842	-47.1502	152.449	31.6066	11.5187	152.03	14.0028	-8.37857	156.519	-2.17114	-20.3231	136.138	69.8212	41.3734	136.921	76.0477	69.5935	102.127	76.7912	56.5451	
190	1.58333	77.4985	56.0824	72.5503	60.5368	38.9672	47.9929	46.0931	24.5807	27.9487	37.8557	11.0844	8.21371	80.9939	56.3716	-7.24325	72.2112	48.5872	-31.3495	67.044	40.433	-55.3394	108.625	52.2955	-13.7181	105.508	38.6094	-42.837	101.201	23.2307	-69.7471	127.314	34.7855	-8.95383	126.378	17.9685	-24.3833	124.837	-9.51283	-39.4854	148.996	32.0585	11.5245	153.773	13.179	-4.47355	158.489	-5.32161	-16.4822	136.709	68.216	38.1928	138.043	77.1124	70.878	101.596	78.7951	54.936	
191	1.59167	78.2401	57.7958	65.9228	63.7294	40.8421	50.3489	44.8244	24.8858	24.5083	37.0902	12.4608	12.9465	85.1198	56.8265	-11.6455	75.8008	51.8633	-32.3151	69.2639	47.3822	-53.2054	109.046	43.7228	-18.3148	104.99	27.421	-37.1321	96.8543	2.12326	-57.8544	129.669	34.339	-4.27141	124.445	12.0952	-19.337	119.636	-15.2995	-27.9202	153.843	32.0999	10.9549	158.752	14.7971	-2.97135	159.563	-1.99101	-20.7101	132.939	73.2576	37.6065	135.757	79.3288	68.1576	105.049	78.7377	50.2754	
192	1.6	77.1101	59.5894	66.2154	59.0612	41.2864	48.3906	49.1845	27.4935	23.8158	37.9978	13.9467	11.6363	81.8765	57.4529	-9.46249	79.724	51.0571	-30.6238	72.6499	47.208	-57.6473	108.943	39.6425	-16.1472	101.808	15.6604	-31.7951	94.7776	-14.8176	-42.9563	126.226	31.1983	-6.78778	127.187	9.78053	-16.4044	117.071	-20.291	-21.8643	150.218	36.4332	6.68779	159.143	21.7948	-8.15629	167.077	8.46345	-22.2233	133.731	72.637	37.0574	135.031	81.0914	63.3095	102.607	82.7177	53.6517	
193	1.60833	80.4311	59.3087	69.586	61.1394	41.567	44.5742	48.844	28.0795	28.0937	39.1349	15.1864	9.74617	83.4605	57.5058	-7.33655	76.8742	50.3409	-30.5271	70.5694	45.6293	-56.7955	105.322	37.1884	-14.4397	100.763	13.8244	-25.718	95.6268	-21.0712	-27.58	128.472	36.9095	-4.53248	122.799	9.89908	-17.8189	119.048	-20.2639	-20.5683	154.333	41.7951	9.25261	160.791	30.3707	-12.9402	168.385	20.5928	-30.8365	135.894	75.5256	32.8493	139.801	84.1947	65.7844	103.088	82.8681	53.7613	
194	1.61667	78.1463	61.0163	68.5065	61.1111	44.406	45.6877	49.4948	30.9849	22.4042	44.8237	18.406	7.10921	84.6017	59.6109	-12.4751	75.9144	52.477	-33.1919	74.8595	47.8295	-55.1362	107.256	39.3338	-15.9722	104.717	12.4801	-25.3006	99.365	-20.7547	-24.0675	127.397	40.337	-7.70483	126.85	17.4426	-19.9827	124.948	-10.5046	-25.0743	148.882	50.1479	1.97669	158.5	42.489	-12.1085	161.28	38.9238	-33.3516	132.535	78.1635	33.0168	137.515	88.1475	63.3211	101.268	85.6727	50.4063	
195	1.625	81.2516	62.7066	65.5977	65.5649	46.1182	42.993	55.5501	32.3386	22.6559	54.6805	20.0855	2.01911	81.9612	62.841	-12.2133	72.3668	56.2391	-32.9657	65.5859	50.2674	-57.9101	102.723	45.7444	-15.7025	101.305	18.345	-26.9338	102.981	-12.8802	-28.5245	128.728	46.3006	-10.3141	127.319	27.1563	-23.993	124.989	-0.881112	-33.9106	149.74	59.2226	1.47683	157.698	54.1894	-14.5204	158.372	55.554	-39.1642	129.264	82.9482	36.9379	136.815	89.8455	63.9371	102.522	87.3049	52.8893	
196	1.63333	82.1325	61.6429	68.0313	68.0562	44.1704	43.3373	61.8302	29.3207	21.4366	61.0384	15.3637	1.1033	79.1623	65.3367	-11.7028	71.2101	56.2617	-31.5277	63.3233	49.366	-54.4147	104.073	51.1062	-17.8932	102.271	26.7337	-33.1482	101.703	-7.93265	-40.1644	125.824	55.3309	-11.419	129.549	36.2253	-29.4519	129.177	11.3359	-42.5975	146.77	64.5121	3.64068	156.586	62.8866	-19.1187	163.114	67.4855	-34.5548	134.151	88.0511	34.0756	138.408	92.4077	67.6734	103.074	88.4368	52.8682	
197	1.64167	84.2283	60.2997	69.5912	69.7241	40.0692	41.8086	67.0518	24.5765	18.0125	75.6229	11.9101	2.55349	80.9121	64.5532	-8.69849	71.7633	52.5096	-33.1412	68.3946	43.471	-51.6576	103.445	61.5572	-15.5933	101.012	41.425	-36.3973	102.229	7.488	-55.2895	125.809	62.0707	-11.3798	130.594	45.6927	-34.0807	127.781	26.7283	-50.1465	152.997	69.2585	7.098	157.532	69.0836	-17.7938	160.905	71.0167	-36.4334	132.381	87.4858	35.7453	134.846	93.6247	69.6514	99.7206	90.7604	54.0816	
198	1.65	86.3097	60.3496	67.1826	75.3052	38.7713	45.7096	73.9165	21.168	18.2071	83.5275	6.62291	-2.90689	80.5114	64.6972	-7.49165	75.0054	48.4278	-32.6524	66.8693	32.7145	-52.8048	109.137	68.1641	-19.9407	99.9553	51.5752	-43.7109	99.5691	29.7134	-67.6785	129.87	68.9465	-11.5639	129.384	57.2643	-38.5009	127.971	40.6443	-55.43	152.885	72.9549	4.58406	160.846	72.2212	-18.3938	165.827	73.7808	-36.0529	133.021	89.8093	38.0292	134.154	96.8898	63.9201	103.819	90.9383	54.2354	
199	1.65833	85.7888	61.2758	60.8233	74.4943	35.8145	38.0853	79.3507	20.1143	13.8842	90.1266	7.20571	-1.66931	83.6502	62.7024	-14.1309	73.2126	47.109	-30.7843	72.9423	29.3869	-49.3916	107.535	75.2543	-22.8081	101.593	64.2313	-45.3998	103.04	45.8745	-75.818	129.712	74.5959	-13.8742	126.874	65.386	-40.2195	131.007	47.2249	-62.9619	154.352	73.8688	4.84778	161.261	72.3026	-21.2554	165.991	67.9758	-41.19	134.781	92.6496	32.7244	135.58	98.6492	65.2618	98.3841	94.2983	51.6196	
200	1.66667	86.0482	62.4095	61.6218	76.7951	37.6629	41.8283	79.2929	19.0182	13.6281	89.762	5.69378	-2.41262	82.4866	66.724	-13.0095	76.1586	48.6093	-35.7572	74.5473	29.6403	-51.5842	109.871	79.6912	-24.4188	105.721	72.2057	-49.0094	103.766	57.3984	-78.4592	131.806	77.0818	-16.1758	132.947	66.2447	-42.6669	134.457	45.7079	-65.1226	156.812	73.2612	1.75	160.694	65.9559	-23.9946	167.027	56.1092	-43.7152	130.686	94.978	32.9531	139.224	99.954	65.4798	102.81	95.6884	48.9557	
